<svg width="48" height="56" viewBox="0 0 48 56" fill="none" xmlns="http://www.w3.org/2000/svg">
<path d="M8.03691 41.7405C9.61089 43.1511 12.2768 44.2785 16.3942 43.309C17.5543 43.0367 18.1806 41.7705 17.7204 40.6703C17.7122 40.6512 17.7041 40.6349 17.6986 40.6158C17.2929 39.6519 16.1818 39.1481 15.2178 39.5511C9.21331 42.0591 3.97125 32.9801 9.14523 29.0343C9.97851 28.3998 10.0956 27.188 9.46384 26.3547C9.45294 26.3384 9.43933 26.3248 9.42844 26.3084C8.70136 25.3526 7.28804 25.2791 6.46565 26.1505C3.72617 29.0561 3.18971 31.8037 3.57912 33.7835C4.94341 40.5205 -0.780641 39.7744 0.0907661 41.283C0.932218 42.7453 3.35582 37.5686 8.03691 41.7405ZM8.73403 34.0394C8.8593 35.3438 9.61089 36.6455 10.6784 37.4053C12.6281 38.7886 15.3186 38.323 16.6775 36.3759C18.7688 33.3696 16.2771 29.0506 12.6281 29.3611C10.2617 29.5626 8.51074 31.6621 8.73403 34.0394Z" fill="#FF6A58"/>
<path d="M3.74238 20.8318C3.3094 22.8987 3.66614 25.7716 6.56356 28.8542C7.38051 29.7202 8.78837 29.6303 9.51001 28.6799C9.5209 28.6636 9.53179 28.65 9.54541 28.6336C10.1772 27.7976 10.0574 26.5858 9.2268 25.9513C4.0501 22.0055 9.29488 12.9238 15.2994 15.4345C16.2661 15.8376 17.3745 15.3338 17.7802 14.3698C17.7884 14.3507 17.7965 14.3344 17.802 14.3153C18.2649 13.2097 17.625 11.9462 16.4568 11.6712C12.5708 10.7507 9.92393 11.6603 8.40441 12.9864C3.24949 17.5395 1.03285 12.2103 0.164169 13.719C-0.680007 15.1786 5.01409 14.6884 3.74238 20.8318ZM10.7599 17.5831C9.69246 18.3429 8.94087 19.6445 8.81561 20.9489C8.59231 23.329 10.3406 25.4258 12.707 25.63C16.356 25.9377 18.8477 21.6215 16.7563 18.6152C15.4002 16.6654 12.7097 16.1998 10.7599 17.5831Z" fill="#22B0FC"/>
<path d="M19.703 6.65537C17.696 7.31437 15.3868 9.05991 14.1668 13.1092C13.8237 14.2502 14.6079 15.4266 15.7898 15.5764C15.8089 15.5791 15.8279 15.5818 15.847 15.5846C16.8845 15.7153 17.8757 15.0045 18.0092 13.967C18.837 7.51316 29.3238 7.51316 30.1517 13.967C30.2851 15.0045 31.2763 15.7153 32.3138 15.5846C32.3329 15.5818 32.352 15.5791 32.371 15.5764C33.561 15.4239 34.3344 14.2366 33.9886 13.0874C32.8421 9.26142 30.7317 7.4233 28.8228 6.76974C22.3063 4.58306 25.8137 0 24.0736 0C22.3853 0 25.6558 4.68653 19.703 6.65537ZM26.0234 11.1077C24.8334 10.5631 23.3275 10.5631 22.1374 11.1077C19.9644 12.1044 19.0222 14.6696 20.0297 16.8182C21.5874 20.1322 26.5735 20.1322 28.1311 16.8182C29.1387 14.6696 28.1937 12.1071 26.0234 11.1077Z" fill="#FCBF5B"/>
<path d="M39.9603 13.3898C38.3863 11.9792 35.7203 10.8519 31.6029 11.8213C30.4429 12.0936 29.8193 13.3599 30.2795 14.46C30.2876 14.4791 30.2931 14.4954 30.3013 14.5118C30.707 15.4758 31.818 15.9795 32.782 15.5765C38.7866 13.0658 44.0286 22.1475 38.8547 26.0933C38.0214 26.7278 37.9043 27.9396 38.5361 28.7756C38.5469 28.792 38.5606 28.8083 38.5715 28.8219C39.2985 29.7777 40.7118 29.8513 41.5342 28.9798C44.2737 26.0743 44.8102 23.3266 44.4208 21.3469C43.0565 14.6098 48.7805 15.3532 47.9091 13.8473C47.0622 12.385 44.6413 17.5617 39.9603 13.3898ZM39.2631 21.0909C39.1379 19.7865 38.3863 18.4848 37.3188 17.7251C35.369 16.3417 32.6786 16.8074 31.3197 18.7572C29.2283 21.7635 31.72 26.0797 35.369 25.772C37.7354 25.5677 39.4864 23.4709 39.2631 21.0909Z" fill="#1BCEB3"/>
<path d="M44.2548 34.2981C44.6878 32.2285 44.3311 29.3583 41.4336 26.2757C40.6167 25.407 39.2088 25.4996 38.4872 26.4473C38.4763 26.4636 38.4654 26.4772 38.4518 26.4936C37.82 27.3296 37.9398 28.5414 38.7704 29.1759C43.9471 33.1217 38.705 42.2034 32.7005 39.6926C31.7338 39.2869 30.6255 39.7907 30.2197 40.7574C30.2115 40.7737 30.2034 40.7928 30.1979 40.8119C29.735 41.9175 30.3749 43.181 31.5432 43.456C35.4291 44.3737 38.076 43.4669 39.5955 42.1408C44.7477 37.5904 46.9643 42.9196 47.8357 41.411C48.6772 39.9513 42.9831 40.4415 44.2548 34.2981ZM37.2373 37.5468C38.3047 36.7871 39.0563 35.4827 39.1816 34.181C39.4049 31.801 37.6566 29.7014 35.2902 29.4999C31.6412 29.1922 29.1495 33.5111 31.2409 36.5175C32.597 38.4618 35.2875 38.9274 37.2373 37.5468Z" fill="#B9D432"/>
<path d="M28.2944 48.4745C30.3013 47.8155 32.6105 46.07 33.8305 42.0206C34.1736 40.8796 33.3894 39.706 32.2075 39.5535C32.1885 39.5508 32.1694 39.548 32.1503 39.5453C31.1128 39.4146 30.1216 40.1253 29.9882 41.1629C29.1603 47.6194 18.6735 47.6194 17.8456 41.1629C17.7122 40.1253 16.721 39.4146 15.6835 39.5453C15.6644 39.548 15.6453 39.5508 15.6263 39.5535C14.4363 39.706 13.6629 40.8933 14.0087 42.0424C15.1552 45.8657 17.2656 47.7066 19.1745 48.3574C25.6938 50.5468 22.1863 55.1272 23.9264 55.1272C25.6121 55.1299 22.3416 50.4433 28.2944 48.4745ZM21.9739 44.0222C23.1639 44.5668 24.6698 44.5668 25.8599 44.0222C28.0329 43.0255 28.9751 40.4603 27.9676 38.3117C26.4099 34.9977 21.4239 34.9977 19.8662 38.3117C18.8587 40.4603 19.8009 43.0255 21.9739 44.0222Z" fill="#FCBF5B"/>
</svg>
